<svg width="23" height="24" viewBox="0 0 23 24" fill="none" xmlns="http://www.w3.org/2000/svg">
<path d="M7.07108 16.3701C7.26624 16.5652 7.58303 16.5652 7.77819 16.3701L14.8314 9.31686L14.7031 14.5901C14.6963 14.8659 14.9141 15.0953 15.1908 15.1022C15.4669 15.109 15.696 14.8908 15.7027 14.6147L15.8493 8.59208C15.8493 8.32479 15.7453 8.07377 15.5564 7.8848C15.3676 7.696 15.1164 7.59188 14.8371 7.59223L8.82665 7.7386C8.55053 7.74532 8.33256 7.9746 8.3391 8.25055C8.34546 8.52667 8.57492 8.74482 8.85105 8.7381L14.1356 8.59844L7.07108 15.663C6.87592 15.8581 6.87592 16.1749 7.07108 16.3701Z" fill="#2D2D2D"/>
</svg>
